# xmcd
#
# Track frame offsets:
#	150
#	11457
#	21316
#	32263
#	42190
#	52432
#	62456
#	74963
#	84072
#	97029
#	107166
#	116073
#	124725
#	135214
#	144038
#
# Disc length: 2061 seconds
# Revision: 0
# Processed by: cddbd v1.5.2PL0 Copyright (c) Steve Scherf et al.
# Submitted via: dBpowerAMP V12.0
#
DISCID=c6080b0f
DTITLE=Johnny Cash - More Of Old Golden Throat
DYEAR=1982
DGENRE=Country
TTITLE0=Bottom Of A Mountain
TTITLE1=You Beat All I Ever Saw
TTITLE2=Put The Sugar To Bed
TTITLE3=Blues For Two
TTITLE4=Girl In Saskatoon
TTITLE5=Time And Time Again
TTITLE6=Jeri And Nina's Melody
TTITLE7=Honky Tonk Girl
TTITLE8=Locomotive Man
TTITLE9=Bandana
TTITLE10=Second Honeymoon
TTITLE11=I'll Remember You
TTITLE12=Wabash Blues
TTITLE13=Lorena
TTITLE14=Roll Call
EXTD=
EXTT0=
EXTT1=
EXTT2=
EXTT3=
EXTT4=
EXTT5=
EXTT6=
EXTT7=
EXTT8=
EXTT9=
EXTT10=
EXTT11=
EXTT12=
EXTT13=
EXTT14=
PLAYORDER=
